# xmcd CD database file
#
# Track frame offsets:
#	150
#	17900
#	31210
#	49200
#	62950
#	81790
#	100350
#	115922
#	135697
#	152347
#	171057
#
# Disc length: 2504 seconds
#
# Revision: 10
# Processed by: cddbd v1.5.1PL0 Copyright (c) Steve Scherf et al.
# Submitted via: CDex 1.51
#
DISCID=8b09c60b
DTITLE=椎名林檎 - 無罪モラトリアム
DYEAR=1999
DGENRE=Rock
TTITLE0=正しい街
TTITLE1=歌舞伎町の女
TTITLE2=丸の内サディスティック
TTITLE3=幸福論
TTITLE4=茜さす 帰路照らされど・・・
TTITLE5=シドと白昼夢
TTITLE6=積木遊び
TTITLE7=ここでキスして。
TTITLE8=同じ夜
TTITLE9=警告
TTITLE10=モルヒネ
EXTD=Year:99.2.24 TOCT24065 YEAR: 1999
EXTT0=
EXTT1=
EXTT2=
EXTT3=
EXTT4=
EXTT5=
EXTT6=
EXTT7=
EXTT8=
EXTT9=
EXTT10=
PLAYORDER=
